<svg xmlns="http://www.w3.org/2000/svg" width="482.70901" height="486.96188" x="0px" y="0px" viewBox="0 0 482.70901 486.96188"><g><ellipse cx="241.52762" cy="237.30771" rx="233.58427" ry="235.32187" style="fill:#fff;stroke-width:3"/><path d="M203.957 420.49c0-11.465-9.211-20.761-20.58-20.761-11.364 0-20.572 9.296-20.572 20.761 0 2.751.534 5.374 1.493 7.778l-5.134-1.973-4.35 1.973a30 30 0 0 1-1.025-7.778c0-16.486 13.251-29.857 29.588-29.857 16.343 0 29.594 13.371 29.594 29.857a30 30 0 0 1-1.025 7.778l-4.215-2.226-5.27 2.226a20.85 20.85 0 0 0 1.496-7.778" style="fill:#26408b;fill-opacity:1;fill-rule:nonzero;stroke:none;stroke-width:.1" transform="matrix(8.03944 0 0 -8.03944 -1232.919 3623.975)"/><path d="M203.957 420.49c0-11.465-9.211-20.761-20.58-20.761-11.364 0-20.572 9.296-20.572 20.761s9.208 20.763 20.572 20.763c11.369 0 20.58-9.298 20.58-20.763z" style="fill:none;stroke:#26408b;stroke-width:.614771;stroke-linecap:butt;stroke-linejoin:miter;stroke-miterlimit:4;stroke-dasharray:none;stroke-opacity:1" transform="matrix(8.03944 0 0 -8.03944 -1232.919 3623.975)"/><path d="M212.971 420.49c0-16.486-13.251-29.857-29.594-29.857-16.337 0-29.588 13.371-29.588 29.857 0 16.487 13.251 29.854 29.588 29.854 16.343 0 29.594-13.367 29.594-29.854z" style="fill:none;stroke:#26408b;stroke-width:.860587;stroke-linecap:butt;stroke-linejoin:miter;stroke-miterlimit:4;stroke-dasharray:none;stroke-opacity:1" transform="matrix(8.03944 0 0 -8.03944 -1232.919 3623.975)"/><path d="M159.121 422.959a.635.635 0 1 0-1.269 0 .64.64 0 0 0 .635.643.64.64 0 0 0 .634-.643M208.676 422.959a.63.63 0 0 0-.628-.637.637.637 0 0 0-.637.637c0 .351.285.643.637.643a.635.635 0 0 0 .628-.643" style="fill:#fff;fill-opacity:1;fill-rule:nonzero;stroke:none;stroke-width:.1" transform="matrix(8.03944 0 0 -8.03944 -1232.919 3623.975)"/><path d="m193.581 431.27-.011.003v-18.667c0-5.587-4.485-10.12-10.022-10.12-5.544 0-10.03 4.533-10.03 10.12v18.629c0 1.754-1.769 3.212-3.502 3.238v-19.384c0-7.543 6.062-13.459 13.549-13.459 7.48 0 13.537 5.916 13.537 13.459v19.384c-1.732-.033-3.518-1.45-3.521-3.203m-10.069-7.52a1.47 1.47 0 0 1 0 2.939 1.46 1.46 0 0 1-1.456-1.468c0-.815.657-1.471 1.456-1.471m.036-20.598c4.782 0 8.693 3.575 8.923 8.309v23.012c-1.707-.039-3.519-1.43-3.539-3.16l-.012-22.18a5.34 5.34 0 0 0-1.051-2.783v10.982l.011.852v.002c0 2.482-1.932 4.489-4.325 4.489-2.38 0-4.312-2.007-4.312-4.489v-.002l.009-.852v-11.043c-.609.805-1 1.78-1.09 2.844l-.026 22.308c-.085 1.675-1.848 3.006-3.525 3.032l.018-22.797c.227-4.744 4.129-8.524 8.919-8.524m-.78 5.037v.004h-.004l.004 7.317h-1.225a.833.833 0 0 0-.838.84c0 .468.365.844.838.844h1.225v2.424c0 .425.353.78.78.78.432 0 .79-.355.79-.78h.002v-2.424h1.153a.84.84 0 0 0 .837-.844.84.84 0 0 0-.837-.84h-1.153v-7.317c0-1.361 1.082-2.525 2.39-2.987a5.1 5.1 0 0 0-1.779-.859c-.699-.215-1.403-.204-1.411-.204-1.19 0-2.286.392-3.177 1.05 1.307.461 2.405 1.637 2.405 2.996" style="fill:#26408b;fill-opacity:1;fill-rule:nonzero;stroke:none;stroke-width:.1" transform="matrix(8.03944 0 0 -8.03944 -1232.919 3623.975)"/><path d="m183.034 437.893.971-.084-.056-.853h3.378v-.639h-7.46v.639h3.233zm-2.932-4.464h7.165v-2.657q0-.386-.039-.587a.68.68 0 0 0-.223-.344c-.137-.124-.352-.18-.639-.18-.287-.002-.437-.008-.446-.008l-.334.827c.004 0 .068-.007.192-.013a4 4 0 0 1 .301 0 .8.8 0 0 1 .272.056c.067.024.096.191.096.489v1.784h-5.536v-3.157h-.809zm1.105 2.434h4.777v-1.969h-4.777zm.484-3.624h3.774v-1.883h-3.774zm.344 3.015v-.727h3.126v.727zm.459-3.62v-.646h2.174v.646z" style="fill:#f2a336;fill-opacity:1;fill-rule:nonzero;stroke:none;stroke-width:.1" transform="matrix(8.03944 0 0 -8.03944 -1232.919 3623.975)"/><path d="m157.632 415.906-.077-.409q-.621.047-.983.33a1.1 1.1 0 0 0-.419.746q-.059.482.149.813c.139.22.355.405.653.546q.447.22.983.284.58.07 1.04-.052.454-.124.72-.42a1.24 1.24 0 0 0 .316-.695 1.06 1.06 0 0 0-.191-.785q-.245-.34-.749-.528l-.162.377c.262.104.448.226.556.375a.7.7 0 0 1 .123.516.82.82 0 0 1-.277.547 1.13 1.13 0 0 1-.597.256 2.6 2.6 0 0 1-.726 0 2.6 2.6 0 0 1-.817-.213q-.343-.153-.489-.408a.85.85 0 0 1-.113-.527.76.76 0 0 1 .31-.532c.18-.133.427-.206.75-.221M156.496 414.725l3.658.879.092-.386-1.501-.361.365-1.515 1.501.362.094-.389-3.66-.879-.09.387 1.723.413-.364 1.519-1.724-.416zM157.26 411.748l3.545 1.257.725-2.043-.421-.148-.59 1.667-1.087-.385.555-1.561-.416-.15-.555 1.565-1.208-.429.617-1.735-.418-.147zM159.837 409.965q.841.408 1.494.278.651-.13.928-.701c.118-.251.155-.51.102-.782a1.55 1.55 0 0 0-.402-.76 2.8 2.8 0 0 0-.836-.596 2.7 2.7 0 0 0-.999-.283q-.49-.031-.845.172a1.3 1.3 0 0 0-.527.555c-.12.256-.156.517-.098.791.056.275.194.532.411.761.216.235.474.418.772.565m.169-.369q-.612-.3-.835-.733-.227-.43-.035-.828.192-.402.678-.493.48-.085 1.134.229.415.202.668.461.254.263.322.557a.85.85 0 0 1-.065.565q-.183.378-.643.494c-.307.078-.711-.008-1.224-.252M159.75 406.049l3.174 2.02.217-.343-1.646-2.915 2.492 1.585.204-.321-3.174-2.02-.22.343 1.651 2.916-2.494-1.587zM161.28 403.671l3.655 1.456.268-.334-2.169-3.311-.284.352.672.986-.785.978-1.094-.455zm1.745.292.636-.793.617.895q.284.41.476.655a6 6 0 0 0-.66-.324zM163.333 401.167l2.659 2.661.286-.288-.975-3.203 2.091 2.089.267-.271-2.659-2.659-.288.288.976 3.204-2.09-2.09zM168.911 398.098l.246-.334q-.465-.423-.914-.493a1.1 1.1 0 0 0-.829.208q-.392.288-.493.663-.097.384.05.853c.1.318.255.618.466.909q.348.476.751.725.398.243.802.235.401-.012.721-.244a1.07 1.07 0 0 0 .442-.677q.078-.417-.133-.91l-.38.138q.155.393.107.664a.7.7 0 0 1-.293.444.84.84 0 0 1-.59.174 1.1 1.1 0 0 1-.592-.26 2.7 2.7 0 0 1-.502-.529 2.8 2.8 0 0 1-.403-.742q-.122-.354-.037-.637a.86.86 0 0 1 .307-.444.77.77 0 0 1 .599-.137c.219.038.443.172.675.394M169.759 398.129c.306.544.659.909 1.065 1.085q.608.269 1.162-.039.362-.204.532-.583.17-.378.107-.854a2.8 2.8 0 0 0-.341-.968 2.6 2.6 0 0 0-.659-.803q-.38-.307-.787-.345a1.26 1.26 0 0 0-1.286.744 1.6 1.6 0 0 0-.099.857q.065.473.306.906m.355-.206q-.333-.594-.266-1.076.063-.488.446-.699.392-.22.838-.013.442.204.799.836.221.404.28.763.058.358-.056.639a.83.83 0 0 1-.377.425q-.368.205-.809.036c-.296-.113-.578-.418-.855-.911M171.96 394.852l1.381 3.5.558-.219-.319-2.737q-.046-.384-.072-.57.125.17.372.502l1.626 2.17.499-.195-1.382-3.499-.356.139 1.156 2.929-1.966-2.608-.332.132.368 3.295-1.177-2.978zM175.355 393.57l.895 3.653.58-.141.056-2.757q.005-.383.006-.575.097.188.298.549l1.321 2.372.516-.127-.894-3.653-.371.088.75 3.061-1.596-2.851-.346.086-.084 3.314-.759-3.109zM178.89 392.773l.45 3.735 2.154-.258-.055-.441-1.754.21-.141-1.141 1.646-.201-.052-.438-1.645.2-.155-1.272 1.826-.219-.053-.441zM181.786 392.464l.025 3.761 1.33-.009q.403-.005.609-.107a.73.73 0 0 0 .33-.361q.124-.256.12-.566a1.07 1.07 0 0 0-.21-.673c-.142-.184-.351-.298-.641-.345a1 1 0 0 0 .238-.188q.174-.203.326-.504l.515-1.028-.498.004-.394.788a7 7 0 0 1-.281.518q-.11.18-.2.254a.6.6 0 0 1-.18.101c-.043.01-.12.019-.219.019l-.463.004-.011-1.673zm.412 2.097.853-.004q.27-.003.425.066a.5.5 0 0 1 .235.225.7.7 0 0 1 .082.334.65.65 0 0 1-.152.442q-.152.175-.487.176l-.948.004zM186.902 394.035l.409-.081q-.055-.621-.343-.978a1.08 1.08 0 0 0-.752-.41q-.481-.052-.811.16c-.219.14-.399.364-.54.66q-.207.451-.266.986a2.7 2.7 0 0 0 .062 1.037q.13.458.431.719.302.26.697.307.448.05.787-.201.335-.254.515-.755l-.378-.16q-.148.397-.366.558a.7.7 0 0 1-.517.133.85.85 0 0 1-.553-.27 1.1 1.1 0 0 1-.257-.592 2.7 2.7 0 0 1-.016-.729c.037-.317.101-.592.204-.819.103-.232.231-.395.403-.494a.86.86 0 0 1 .528-.12.76.76 0 0 1 .533.303q.201.267.23.746M187.996 392.896l-.71 3.697.388.073.712-3.694zM188.785 393.021l.126 3.932.412.112 2.17-3.311-.436-.117-.634 1.008-1.214-.329-.019-1.188zm.428 1.715.982.266-.574.927q-.263.417-.41.694.039-.364.033-.734zM191.868 393.904l-1.336 3.519.371.14 1.179-3.101 1.381.526.159-.417zM194.955 395.174l-1.792 3.306.347.189.738-1.359 1.368.746-.733 1.355.345.191 1.795-3.309-.35-.188-.845 1.56-1.37-.744.845-1.558zM197.614 396.688l-2.032 3.164.332.216 2.035-3.166zM198.794 399.313l-.268.348 1.008.775.846-1.111a2.2 2.2 0 0 0-.214-.716 1.4 1.4 0 0 0-.416-.502 1.44 1.44 0 0 0-.785-.3 1.46 1.46 0 0 0-.849.214c-.278.164-.53.39-.755.686a2.8 2.8 0 0 0-.476.927q-.142.487-.008.88.128.392.489.664c.171.133.351.214.544.253q.29.052.553-.043c.172-.065.356-.185.554-.352l-.21-.317a1.5 1.5 0 0 1-.408.257.73.73 0 0 1-.386.038.9.9 0 0 1-.39-.173 1.06 1.06 0 0 1-.309-.366.9.9 0 0 1-.09-.412 1.4 1.4 0 0 1 .077-.411q.121-.349.367-.672.304-.4.624-.585a1.02 1.02 0 0 1 1.167.051c.137.107.244.24.325.408.077.163.125.308.134.437l-.425.557zM201.231 399.385l-2.615 2.706.289.274 1.072-1.11 1.12 1.08-1.073 1.111.288.279 2.611-2.708-.285-.277-1.233 1.279-1.119-1.085 1.231-1.275zM203.127 403.052l.195.319c.159-.1.309-.161.442-.182a.7.7 0 0 1 .416.06q.215.09.369.296.14.18.178.368a.56.56 0 0 1-.028.346.6.6 0 0 1-.202.264.53.53 0 0 1-.296.123.6.6 0 0 1-.338-.077 5 5 0 0 1-.472-.312q-.348-.25-.539-.314a.9.9 0 0 0-.473-.038c-.154.03-.3.094-.438.201a1.2 1.2 0 0 0-.34.427.86.86 0 0 0-.067.528c.03.182.111.353.232.514q.204.263.467.384.264.117.553.066a1.3 1.3 0 0 0 .558-.246l-.202-.322q-.303.194-.553.165-.252-.026-.463-.302-.22-.282-.191-.516a.55.55 0 0 1 .217-.376.5.5 0 0 1 .334-.112q.174.013.577.312.406.3.594.379c.189.077.368.098.542.073q.261-.046.5-.228a1.26 1.26 0 0 0 .365-.454q.126-.27.088-.566a1.2 1.2 0 0 0-.236-.547 1.44 1.44 0 0 0-.537-.448 1.02 1.02 0 0 0-.615-.068 1.5 1.5 0 0 0-.637.283M205.887 407.214l.313.272c.304-.288.493-.575.562-.875a1.08 1.08 0 0 0-.142-.84c-.171-.275-.377-.46-.624-.545-.246-.087-.533-.09-.853-.017a3.2 3.2 0 0 0-.942.395 2.7 2.7 0 0 0-.78.69 1.46 1.46 0 0 0-.3.782q-.019.4.189.738.237.382.643.496.403.11.913-.063l-.107-.392q-.405.127-.669.055a.69.69 0 0 1-.42-.325.85.85 0 0 1-.127-.601q.054-.308.305-.57.247-.266.566-.459c.272-.172.529-.283.77-.346q.367-.092.638.016a.82.82 0 0 1 .419.339c.118.19.145.395.091.608q-.087.322-.445.642M207.482 407.37l-3.4 1.61.169.359 1.395-.661.669 1.407-1.393.664.167.356 3.401-1.612-.172-.356-1.604.759-.664-1.408 1.599-.762zM207.019 410.706c-.592.202-1.008.485-1.259.854q-.37.548-.167 1.149.131.393.478.628.34.236.824.258.474.022 1.007-.161.542-.186.914-.502a1.5 1.5 0 0 0 .478-.716 1.3 1.3 0 0 0-.015-.764 1.2 1.2 0 0 0-.484-.634 1.6 1.6 0 0 0-.828-.254 2.6 2.6 0 0 0-.948.142m.142.387q.642-.224 1.106-.072c.313.101.51.29.609.567.094.28.049.56-.137.825q-.283.4-.969.635a2.4 2.4 0 0 1-.798.141 1.13 1.13 0 0 1-.622-.171.85.85 0 0 1-.35-.446q-.136-.398.11-.802.246-.406 1.051-.677M208.014 413.679q-.914.2-1.349.703-.433.5-.3 1.123c.058.27.195.496.401.677q.314.276.789.352.471.079 1.023-.043a2.8 2.8 0 0 0 .963-.394q.399-.277.557-.657a1.255 1.255 0 0 0-.334-1.444 1.6 1.6 0 0 0-.794-.348 2.7 2.7 0 0 0-.956.031m.095.398c.443-.095.809-.075 1.11.06q.443.2.536.631.095.438-.232.806c-.214.24-.562.415-1.033.519q-.45.097-.811.046a1.14 1.14 0 0 1-.596-.241.83.83 0 0 1-.298-.483q-.089-.411.202-.785.29-.373 1.122-.553M210.477 416.685l-3.737.426.047.395 3.294-.38.167 1.471.442-.051z" style="fill:#fff;fill-opacity:1;fill-rule:nonzero;stroke:none;stroke-width:.1" transform="matrix(8.03944 0 0 -8.03944 -1232.919 3623.975)"/><path d="m159.258 432.187-.481.288.412.69-.538.321.296.498.537-.318.416.7.482-.288-.422-.707q.227-.135.474-.2.246-.062.453-.053.234.002.493.072.262.077.513.189l.254-.463a1.7 1.7 0 0 0-.358-.18 2.6 2.6 0 0 0-.379-.099 3 3 0 0 0-.378-.06 1.3 1.3 0 0 0-.247 0q.053-.08.125-.222.071-.141.134-.314a3 3 0 0 0 .139-.465c.033-.155.055-.289.063-.414l-.548-.066a3.4 3.4 0 0 1-.116.579 2.3 2.3 0 0 1-.227.529 2 2 0 0 1-.281.362 2 2 0 0 1-.399.325zm.506 2.912.282.472 3.31-1.966-.282-.475-1.64.974-.399-.673-.476.285.398.671zm2.418-2.944.963-.573.994 1.673.486-.29-1.275-2.146-1.451.858zM163.824 438.734q-.105.241-.118.473-.014.24.06.455a.89.89 0 0 0 .632.579q.22.057.458.021c.154-.021.307-.077.462-.158q.232-.121.422-.329.192-.21.296-.452.103-.244.116-.476a1.1 1.1 0 0 0-.062-.451.9.9 0 0 0-.243-.366.9.9 0 0 0-.39-.216 1.2 1.2 0 0 0-.453-.022 1.4 1.4 0 0 0-.462.159 1.7 1.7 0 0 0-.718.783m1.017.958q-.268.058-.433-.094-.167-.154-.131-.425a.94.94 0 0 1 .253-.509.94.94 0 0 1 .487-.297q.266-.057.432.098.165.149.131.421a.9.9 0 0 1-.252.51.92.92 0 0 1-.487.296m2.07 1.355.385-.422-.444-.406 1.301-1.419-.404-.371-2.611 2.846.405.37.922-1.006zm-.295-3.278.757-.826 1.397 1.282.383-.416-1.807-1.657-1.14 1.241zM172.913 442.921a2.4 2.4 0 0 0-.344.069q-.19.046-.388.135-.21.087-.335.163a.8.8 0 0 0-.189.143 1 1 0 0 0-.007-.246 3 3 0 0 0-.074-.38 3 3 0 0 0-.126-.411 3 3 0 0 0-.2-.404l-.506.236q.14.27.236.569.095.3.108.576.006.237-.057.532a2.8 2.8 0 0 1-.205.592l-.178.373.531.253.196-.412q.122-.258.293-.484.171-.23.346-.364.19-.157.44-.254.249-.1.522-.13zm.883 2.251.246-.516-.54-.258.57-1.194-.497-.238-1.327 2.788.498.234.51-1.073zm.94-3.561a1.3 1.3 0 0 0-.036-.446 1 1 0 0 0-.195-.376.9.9 0 0 0-.331-.263.94.94 0 0 0-.416-.094 1.1 1.1 0 0 0-.412.088q-.204.089-.373.253-.165.162-.275.394a1.4 1.4 0 0 0-.131.461q-.022.236.038.45.058.21.191.38a.95.95 0 0 0 .331.265.9.9 0 0 0 .416.088q.217-.003.414-.088.204-.089.373-.257c.113-.107.205-.24.277-.39q.11-.23.129-.465m-.958.581q-.218.108-.406.019a.44.44 0 0 1-.247-.33.72.72 0 0 1 .061-.483.73.73 0 0 1 .328-.349.43.43 0 0 1 .404-.017.46.46 0 0 1 .248.326.7.7 0 0 1-.054.482.74.74 0 0 1-.334.352M177.796 446.635q.048.248.168.442.12.193.3.327a.9.9 0 0 0 .836.123 1.22 1.22 0 0 0 .669-.605q.12-.225.158-.489a1.5 1.5 0 0 0-.01-.521 1.3 1.3 0 0 0-.171-.444 1.2 1.2 0 0 0-.301-.323.921.921 0 0 0-.834-.122q-.21.072-.381.227a1.3 1.3 0 0 0-.287.375q-.117.224-.156.495-.039.264.009.515m1.353.201q-.183.187-.396.157-.21-.031-.335-.264a.84.84 0 0 1-.081-.527.82.82 0 0 1 .228-.487q.185-.186.397-.154.21.03.335.259a.84.84 0 0 1 .081.532.85.85 0 0 1-.229.484m.437-2.144.078-.544 1.217.175-.079.545.55.079.312-2.152-2.315-.337-.312 2.153zm.157-1.074.078-.538 1.215.178-.078.535zm.662 4.316.542.077.414-2.839-.544-.077-.169 1.165-.543-.08-.084.562.547.077zM186.859 445.934l.536-.084-.223-1.428 1.939-.301-.088-.557-3.826.588.088.561 1.353-.209zm.948-1.163c.052.15.098.313.15.487q.077.263.141.537c.046.184.086.359.123.533q.054.26.088.478l-1.922.296.086.562 2.494-.386q-.045-.298-.118-.639a23.876 23.876 0 0 0-.326-1.372q-.09-.327-.171-.579zM192.85 443.895l3.531-1.729-.244-.497-3.532 1.728zm1.775-1.836q.136-.172.193-.373a1.1 1.1 0 0 0 .048-.438 1.3 1.3 0 0 0-.12-.437 1.2 1.2 0 0 0-.275-.364 1.2 1.2 0 0 0-.369-.23 1.01 1.01 0 0 0-.832.03 1.054 1.054 0 0 0-.536.639 1.2 1.2 0 0 0-.045.431q.018.225.122.442c.069.137.159.262.271.362a1.2 1.2 0 0 0 .368.234q.203.073.419.073a.9.9 0 0 0 .42-.103.96.96 0 0 0 .336-.266m-.716-1.325a.64.64 0 0 1 .335.322.68.68 0 0 1 .055.463.47.47 0 0 1-.248.321.48.48 0 0 1-.414.005.63.63 0 0 1-.335-.326.64.64 0 0 1-.053-.459.46.46 0 0 1 .249-.32.5.5 0 0 1 .411-.006m2.779 3.83-.247-.504-1.678.821-.331-.676 1.716-.84-.238-.487-2.206 1.081.814 1.664zM199.529 438.718l1.76-1.646-1.333-1.422-.403.379.956 1.021-1.355 1.269zm3.141 1.079-.375-.401-.373.352a1.5 1.5 0 0 0-.096-.395 1.2 1.2 0 0 0-.23-.356 1.4 1.4 0 0 0-.383-.29 1.2 1.2 0 0 0-.425-.128.948.948 0 0 0-1.012.594q-.07.198-.065.411.01.217.108.432a1.36 1.36 0 0 0 .6.654q.187.091.384.124l-.378.352.376.403.726-.682.404.429.433-.403-.403-.434zm-1.307-.199a.7.7 0 0 1 .042.452.35.35 0 0 1-.094.165.37.37 0 0 1-.172.084.737.737 0 0 1-.446-.071.84.84 0 0 1-.351-.377.7.7 0 0 1-.06-.232.6.6 0 0 1 .019-.217.34.34 0 0 1 .099-.164c.045-.039.1-.07.167-.084a.707.707 0 0 1 .446.071.7.7 0 0 1 .208.154.8.8 0 0 1 .142.219m1.719-1.484-.39-.416-.433.409-.78-.83-.399.376 2.105 2.253.403-.377-.941-1.004zM205.589 433.847l.259-.449-1.254-.722.229-.399 1.255.723.257-.448-1.253-.721.736-1.274-.493-.282-1.954 3.387.492.283.473-.821zm-.017-2.003q.452.195.954.448t.922.504l-1.046 1.814.488.283 1.325-2.298a36 36 0 0 0-1.192-.642q-.316-.162-.621-.31a20 20 0 0 0-.563-.264z" style="fill:#f2a336;fill-opacity:1;fill-rule:nonzero;stroke:none;stroke-width:.1" transform="matrix(8.03944 0 0 -8.03944 -1232.919 3623.975)"/></g></svg>